<?xml version="1.0" standalone="no"?>
<!DOCTYPE svg PUBLIC "-//W3C//DTD SVG 20010904//EN"
 "http://www.w3.org/TR/2001/REC-SVG-20010904/DTD/svg10.dtd">
<svg version="1.0" xmlns="http://www.w3.org/2000/svg"
 width="400.000000pt" height="400.000000pt" viewBox="0 0 400.000000 400.000000"
 preserveAspectRatio="xMidYMid meet">
<metadata>
Created by potrace 1.11, written by Peter Selinger 2001-2013
</metadata>
<g transform="translate(0.000000,400.000000) scale(0.100000,-0.100000)"
fill="#000000" stroke="none">
<path d="M170 3820 c-1 -93 -1 -3581 0 -3595 0 -7 615 -10 1827 -9 1006 1
1833 2 1839 3 8 1 11 521 10 1838 l-1 1838 -1837 0 -1838 0 0 -75z m3471 -147
c0 -10 1 -742 1 -1627 1 -1559 1 -1609 -17 -1622 -12 -9 -22 -11 -28 -5 -6 6
-19 6 -32 1 -13 -5 -26 -6 -29 -3 -4 4 -25 6 -49 5 -50 -3 -45 -3 -127 -3 -36
1 -73 1 -82 0 -10 0 -57 1 -105 1 -49 1 -92 1 -98 0 -5 -1 -14 -2 -20 -1 -14
3 -209 3 -221 0 -5 -1 -13 -1 -19 0 -14 3 -209 3 -221 0 -5 -1 -13 -1 -19 1
-13 2 -128 2 -140 0 -6 -1 -14 -2 -20 -1 -14 3 -209 3 -221 0 -5 -1 -13 -1
-19 0 -14 3 -209 3 -221 0 -5 -1 -13 0 -19 1 -5 1 -28 1 -50 1 -51 -2 -49 -2
-125 -2 -36 1 -73 1 -82 0 -10 0 -57 1 -105 1 -49 1 -92 1 -98 0 -5 -1 -14 -2
-20 -1 -14 3 -209 3 -221 0 -5 -1 -13 -1 -19 0 -14 3 -209 3 -221 0 -5 -1 -13
0 -19 1 -5 1 -28 1 -50 1 -51 -2 -49 -2 -125 -2 -36 1 -73 1 -82 0 -10 0 -57
1 -105 1 -49 1 -92 1 -98 0 -5 -1 -14 -2 -20 0 -5 1 -35 2 -65 3 l-55 2 -1
1633 0 1632 1633 0 c1548 0 1633 -1 1634 -17z"/>
<path d="M1958 3558 c-2 -7 -3 -340 -3 -740 l1 -728 -375 -1 c-207 0 -537 0
-733 0 l-357 0 2 -42 2 -42 725 -1 c399 -1 728 -2 731 -3 3 -1 5 -324 4 -718
0 -395 1 -724 3 -730 2 -8 21 -13 43 -13 30 0 39 4 40 18 0 9 1 337 1 729 1
503 4 713 12 716 6 1 338 3 739 2 584 0 727 2 728 12 1 7 1 22 1 33 0 11 0 24
-1 30 -1 6 -254 9 -717 9 -393 -1 -718 2 -721 5 -4 3 -12 1 -19 -5 -9 -7 -14
-5 -17 8 -3 10 -4 345 -4 746 l2 727 -41 0 c-25 0 -43 -5 -46 -12z"/>
<path d="M1123 3302 c2 -119 -1 -166 -10 -169 -6 -3 -94 -5 -195 -6 l-183 -2
-3 -67 -3 -67 197 1 198 0 0 -381 c0 -339 1 -381 15 -382 9 -1 38 -2 66 -2 47
-1 50 0 52 27 1 16 4 31 7 34 3 3 1 11 -5 18 -7 9 -7 19 0 33 7 12 7 22 1 26
-6 3 -6 15 0 29 5 15 5 27 -2 34 -7 7 -6 16 1 30 7 13 7 23 1 27 -6 3 -6 15 0
29 5 15 5 27 -2 34 -7 7 -6 16 1 30 7 13 7 23 1 27 -6 3 -6 15 0 29 5 15 5 27
-2 34 -7 7 -6 16 1 30 7 13 7 23 1 27 -6 3 -6 15 0 29 5 15 5 27 -2 34 -7 7
-6 16 1 30 7 13 7 23 1 27 -6 3 -6 15 0 30 6 16 6 27 -1 31 -6 3 -7 13 -3 23
4 9 6 26 5 39 -1 25 -21 23 242 23 l147 0 0 69 0 69 -191 -1 c-149 0 -193 3
-200 13 -4 7 -4 18 0 24 5 5 5 19 1 30 -4 11 -4 30 1 41 4 12 3 26 -3 32 -7 7
-6 16 1 30 7 13 7 23 1 27 -6 3 -6 15 0 29 5 15 5 27 -2 34 -7 7 -6 17 1 31 8
13 8 21 2 21 -6 0 -8 7 -4 16 5 13 -5 15 -65 13 l-70 -2 1 -165z"/>
<path d="M2300 3353 c-30 -115 -40 -259 -27 -383 5 -51 47 -178 63 -191 8 -6
14 -17 14 -23 0 -15 99 -108 140 -132 33 -20 37 -29 16 -37 -13 -5 -181 -121
-200 -138 -6 -5 14 -19 45 -33 30 -13 104 -47 164 -76 182 -86 213 -100 224
-100 6 0 11 -5 11 -11 0 -21 22 5 65 79 l45 76 62 3 c219 9 357 180 314 388
-12 56 -8 143 8 177 18 37 62 88 76 88 22 0 8 17 -27 33 -21 9 -58 35 -83 58
-104 94 -225 105 -301 28 -22 -22 -37 -44 -34 -49 3 -5 1 -11 -4 -14 -5 -3 -8
-19 -7 -36 1 -16 0 -30 -2 -30 -3 0 -28 11 -56 25 -48 23 -65 29 -121 40 -46
9 -55 11 -61 17 -3 4 -12 4 -19 2 -22 -9 -108 38 -152 83 -24 23 -56 68 -71
100 -34 69 -54 103 -63 103 -4 0 -12 -21 -19 -47z m75 -242 c-3 -6 18 -27 47
-49 54 -40 116 -67 178 -77 19 -3 52 -10 73 -14 20 -5 37 -7 37 -5 0 2 26 -9
59 -25 53 -27 138 -107 126 -119 -3 -3 0 -11 6 -19 10 -11 15 -9 30 8 20 23
20 25 24 134 3 108 4 111 25 135 23 27 78 40 104 26 11 -6 33 -24 50 -39 25
-24 28 -31 18 -45 -37 -52 -38 -67 -30 -292 2 -61 -2 -82 -19 -115 -52 -97
-111 -129 -220 -122 l-72 5 -47 -72 -46 -73 -104 50 c-57 28 -104 54 -104 58
0 5 14 16 30 26 17 9 30 21 30 25 0 4 7 8 15 8 8 0 15 5 15 10 0 6 6 10 14 10
8 0 16 3 18 8 2 4 33 29 71 55 37 26 67 49 67 50 0 2 -12 4 -26 5 -22 2 -63
12 -114 27 -108 33 -197 126 -239 251 -28 85 -36 184 -15 184 3 0 3 -4 -1 -9z"/>
<path d="M2775 1788 c-14 -18 -32 -40 -38 -48 -15 -18 -97 -160 -97 -166 0 -3
-8 -24 -19 -47 -10 -23 -21 -50 -25 -60 -5 -17 -11 -15 -54 20 -83 68 -116 90
-192 127 -41 20 -78 36 -83 36 -8 0 -5 -22 18 -100 9 -30 17 -59 19 -65 1 -5
5 -19 9 -30 3 -11 8 -31 11 -45 5 -24 30 -118 82 -305 14 -49 26 -96 26 -102
1 -7 8 -15 17 -17 9 -2 177 -4 373 -4 321 1 358 2 362 17 7 23 58 214 61 226
1 6 6 18 10 28 4 10 9 28 10 40 1 12 3 22 4 22 2 0 4 9 6 20 3 11 23 85 45
164 22 80 38 146 36 148 -10 10 -184 -87 -246 -138 -40 -32 -76 -57 -80 -54
-4 2 -15 26 -25 52 -23 59 -100 208 -115 223 -3 3 -20 24 -39 48 -18 23 -36
42 -41 42 -5 0 -20 -15 -35 -32z m81 -225 c20 -43 54 -132 75 -198 22 -66 42
-126 44 -134 4 -10 12 -6 30 16 27 32 149 156 183 187 l22 19 -11 -34 c-6 -19
-34 -97 -61 -175 l-50 -140 -279 -1 c-153 0 -279 3 -279 7 0 4 -8 25 -17 46
-9 22 -18 42 -19 47 -1 4 -2 8 -4 10 -1 1 -3 9 -5 17 -2 8 -19 60 -39 115 -19
54 -34 100 -32 102 3 4 106 -97 174 -171 31 -35 54 -52 56 -44 2 7 9 29 16 48
6 19 13 45 16 57 2 12 13 43 24 68 11 26 20 52 20 58 0 19 80 177 90 177 5 0
25 -35 46 -77z"/>
<path d="M707 1732 l-48 -3 6 -52 c3 -29 11 -70 16 -92 6 -22 11 -42 11 -45
-1 -11 59 -117 81 -142 12 -14 29 -35 38 -45 8 -10 52 -51 97 -92 46 -41 80
-76 77 -79 -3 -3 3 -17 12 -31 10 -16 17 -47 17 -82 1 -46 -6 -69 -38 -132
-22 -42 -43 -77 -47 -77 -4 0 -12 -12 -18 -28 -6 -15 -18 -37 -27 -49 l-16
-22 301 0 c165 0 303 4 306 8 2 5 -2 14 -10 21 -8 7 -15 16 -15 21 0 5 -15 30
-33 56 -78 111 -98 203 -63 286 9 21 66 87 129 150 61 61 118 123 125 136 8
13 22 39 33 57 10 19 16 34 13 34 -4 0 -2 6 3 13 12 14 22 67 29 141 l5 51
-468 0 c-257 0 -490 -1 -516 -3z m786 -121 l48 -1 -15 -29 c-9 -16 -12 -31 -9
-35 4 -3 1 -6 -5 -6 -6 0 -14 -9 -17 -21 -4 -11 -46 -60 -93 -107 -48 -48
-101 -109 -119 -135 -41 -61 -72 -159 -67 -216 4 -53 33 -151 45 -151 5 0 9
-6 9 -14 0 -10 -21 -13 -90 -14 -82 -1 -116 7 -90 23 21 13 48 130 44 193 -6
102 -44 171 -161 289 -101 102 -170 206 -146 221 9 6 429 7 666 3z"/>
<path d="M2456 892 c-3 -3 -6 -29 -6 -58 l0 -54 355 -2 c230 -2 356 1 358 7 2
6 4 33 3 60 l-1 50 -352 2 c-193 1 -354 -1 -357 -5z"/>
</g>
</svg>
